<svg xmlns="http://www.w3.org/2000/svg" viewBox="0 0 22 22"><path d="M11 0C4.9 0 0 4.9 0 11c0 4.9 3.2 9 7.5 10.4.5.1.7-.2.7-.5V19c-3.1.7-3.7-1.5-3.7-1.5-.4-1.2-1.2-1.5-1.2-1.5-1-.7.1-.7.1-.7 1.1.1 1.7 1.1 1.7 1.1 1 1.7 2.6 1.2 3.2.9.1-.7.4-1.2.7-1.5-2.4-.3-5-1.2-5-5.4 0-1.2.4-2.2 1.1-3-.1-.2-.5-1.3.1-2.8 0 0 .9-.3 3 1.1.9-.2 1.8-.4 2.8-.4.9 0 1.9.1 2.8.4 2.1-1.4 3-1.1 3-1.1.6 1.5.2 2.6.1 2.9.7.8 1.1 1.7 1.1 3 0 4.2-2.6 5.2-5 5.4.4.3.7 1 .7 2v3c0 .3.2.6.8.5C18.9 20 22 15.9 22 11c0-6.1-4.9-11-11-11z" fill-rule="evenodd" clip-rule="evenodd" fill="#191717"/></svg>