<svg xmlns="http://www.w3.org/2000/svg" viewBox="0 0 100 100"><path d="M6 6v88h88V6H6zm47.9 68.6c0 8.6-5 12.5-12.3 12.5-6.6 0-10.5-3.4-12.4-7.6l6.7-4.1c1.3 2.3 2.5 4.3 5.3 4.3 2.7 0 4.4-1.1 4.4-5.2V46.4h8.3v28.2zm19.5 12.5c-7.7 0-12.6-3.7-15.1-8.4l6.7-3.9c1.8 2.9 4.1 5 8.2 5 3.4 0 5.6-1.7 5.6-4.1 0-2.8-2.2-3.8-6-5.5l-2.1-.9c-6-2.5-9.9-5.7-9.9-12.5 0-6.2 4.7-10.9 12.1-10.9 5.3 0 9 1.8 11.8 6.6l-6.4 4.1c-1.4-2.5-3-3.5-5.3-3.5-2.4 0-4 1.5-4 3.5 0 2.5 1.5 3.5 5.1 5l2.1.9c7 3 11 6.1 11 13-.1 7.5-5.9 11.6-13.8 11.6z" fill="#d1d2d6"/></svg>