<svg xmlns="http://www.w3.org/2000/svg" viewBox="0 0 22 22"><path d="M14.1 1H8C2.4 1 1 2.3 1 7.9V14c0 5.6 1.3 7 6.9 7H14c5.6 0 6.9-1.3 6.9-6.9V8c0-5.6-1.2-7-6.8-7zm3 14.3h-1.5c-.6 0-.7-.4-1.7-1.4-.9-.8-1.2-.9-1.5-.9-.3 0-.4.1-.4.5v1.3c0 .4-.1.6-1 .6-1.5 0-3.2-.9-4.4-2.7-1.8-2.5-2.3-4.4-2.3-4.8 0-.2.1-.4.5-.4h1.5c.4 0 .5.2.7.6.7 2.1 1.9 3.9 2.4 3.9.2 0 .3-.1.3-.6V9.1c-.1-1-.6-1.1-.6-1.4 0-.2.1-.3.4-.3h2.3c.3 0 .4.2.4.5v2.9c0 .3.1.4.2.4.2 0 .3-.1.7-.4 1.1-1.2 1.8-3 1.8-3 .1-.2.3-.4.6-.4H17c.4 0 .5.2.4.5-.2.8-2 3.4-2 3.4-.2.2-.2.4 0 .6.2.2.7.6 1 1.1.6.7 1.1 1.3 1.2 1.7.2.4 0 .6-.5.6z" fill-rule="evenodd" clip-rule="evenodd" fill="#191717"/></svg>