<?xml version="1.0" encoding="utf-8"?>
<!-- Generator: Adobe Illustrator 23.1.0, SVG Export Plug-In . SVG Version: 6.00 Build 0)  -->
<svg version="1.1" id="Слой_1" xmlns="http://www.w3.org/2000/svg" xmlns:xlink="http://www.w3.org/1999/xlink" x="0px" y="0px"
	 viewBox="0 0 22 22" style="enable-background:new 0 0 22 22;" xml:space="preserve">
<style type="text/css">
	.st0{fill-rule:evenodd;clip-rule:evenodd;fill:#191717;}
</style>
<path class="st0" d="M14.1,1c-5.6,0-0.5,0-6.1,0S1,2.3,1,7.9c0,3.1,0,0.5,0,6.1S2.3,21,7.9,21s0.5,0,6.1,0s6.9-1.3,6.9-6.9
	s0-0.5,0-6.1S19.7,1,14.1,1z M17.1,15.3h-1.5c-0.6,0-0.7-0.4-1.7-1.4c-0.9-0.8-1.2-0.9-1.5-0.9c-0.3,0-0.4,0.1-0.4,0.5v1.3
	c0,0.4-0.1,0.6-1,0.6c-1.5,0-3.2-0.9-4.4-2.7c-1.8-2.5-2.3-4.4-2.3-4.8c0-0.2,0.1-0.4,0.5-0.4h1.5c0.4,0,0.5,0.2,0.7,0.6
	c0.7,2.1,1.9,3.9,2.4,3.9c0.2,0,0.3-0.1,0.3-0.6V9.1C9.6,8.1,9.1,8,9.1,7.7c0-0.2,0.1-0.3,0.4-0.3h2.3c0.3,0,0.4,0.2,0.4,0.5v2.9
	c0,0.3,0.1,0.4,0.2,0.4c0.2,0,0.3-0.1,0.7-0.4c1.1-1.2,1.8-3,1.8-3c0.1-0.2,0.3-0.4,0.6-0.4h1.5c0.4,0,0.5,0.2,0.4,0.5
	c-0.2,0.8-2,3.4-2,3.4c-0.2,0.2-0.2,0.4,0,0.6c0.2,0.2,0.7,0.6,1,1.1c0.6,0.7,1.1,1.3,1.2,1.7C17.8,15.1,17.6,15.3,17.1,15.3z"/>
</svg>
